<svg xmlns="http://www.w3.org/2000/svg" xmlns:xlink="http://www.w3.org/1999/xlink" width="500" zoomAndPan="magnify" viewBox="0 0 375 374.999991" height="500" preserveAspectRatio="xMidYMid meet" version="1.0"><defs><g/><clipPath id="21d3a5da1d"><path d="M 37.828125 172.035156 L 337.5 172.035156 L 337.5 195.851562 L 37.828125 195.851562 Z M 37.828125 172.035156 " clip-rule="nonzero"/></clipPath><clipPath id="992a5f733c"><path d="M 181.355469 127.609375 L 219.980469 127.609375 L 219.980469 179.355469 L 181.355469 179.355469 Z M 181.355469 127.609375 " clip-rule="nonzero"/></clipPath><clipPath id="caf18a5cfd"><path d="M 198.566406 127.609375 L 219.980469 127.609375 L 202.773438 179.230469 L 181.355469 179.230469 Z M 198.566406 127.609375 " clip-rule="nonzero"/></clipPath></defs><g fill="#000000" fill-opacity="1"><g transform="translate(93.325303, 243.012742)"><g><path d="M 85.25 -103.1875 C 82.90625 -105.75 80.53125 -107.894531 78.125 -109.625 C 75.726562 -111.351562 73.21875 -112.71875 70.59375 -113.71875 C 67.976562 -114.726562 65.1875 -115.457031 62.21875 -115.90625 C 59.257812 -116.351562 55.992188 -116.578125 52.421875 -116.578125 C 38.910156 -116.578125 29.113281 -113.976562 23.03125 -108.78125 C 16.945312 -103.59375 13.90625 -96.703125 13.90625 -88.109375 C 13.90625 -82.410156 15.1875 -77.914062 17.75 -74.625 C 20.320312 -71.332031 24.367188 -68.707031 29.890625 -66.75 C 35.421875 -64.789062 42.597656 -62.921875 51.421875 -61.140625 C 60.242188 -59.347656 67.890625 -57.304688 74.359375 -55.015625 C 80.835938 -52.734375 85.835938 -49.609375 89.359375 -45.640625 C 92.878906 -41.679688 94.640625 -36.179688 94.640625 -29.140625 C 94.640625 -24.335938 93.6875 -20.066406 91.78125 -16.328125 C 89.882812 -12.585938 87.125 -9.460938 83.5 -6.953125 C 79.875 -4.441406 75.460938 -2.515625 70.265625 -1.171875 C 65.078125 0.171875 59.242188 0.84375 52.765625 0.84375 C 46.398438 0.84375 40.507812 0.171875 35.09375 -1.171875 C 29.675781 -2.515625 24.617188 -4.550781 19.921875 -7.28125 C 15.234375 -10.019531 10.769531 -13.457031 6.53125 -17.59375 L 9.046875 -19.765625 C 12.054688 -16.640625 15.179688 -13.957031 18.421875 -11.71875 C 21.660156 -9.488281 25.09375 -7.644531 28.71875 -6.1875 C 32.351562 -4.738281 36.179688 -3.679688 40.203125 -3.015625 C 44.222656 -2.347656 48.46875 -2.015625 52.9375 -2.015625 C 64.769531 -2.015625 74.117188 -4.242188 80.984375 -8.703125 C 87.847656 -13.171875 91.28125 -19.816406 91.28125 -28.640625 C 91.28125 -34.554688 89.882812 -39.328125 87.09375 -42.953125 C 84.300781 -46.585938 79.972656 -49.550781 74.109375 -51.84375 C 68.253906 -54.132812 60.75 -56.171875 51.59375 -57.953125 C 42.882812 -59.628906 35.457031 -61.5 29.3125 -63.5625 C 23.164062 -65.632812 18.5 -68.539062 15.3125 -72.28125 C 12.132812 -76.019531 10.546875 -81.179688 10.546875 -87.765625 C 10.546875 -94.691406 12.25 -100.523438 15.65625 -105.265625 C 19.0625 -110.015625 23.890625 -113.617188 30.140625 -116.078125 C 36.398438 -118.535156 43.71875 -119.765625 52.09375 -119.765625 C 57.113281 -119.765625 61.71875 -119.289062 65.90625 -118.34375 C 70.09375 -117.394531 73.945312 -115.882812 77.46875 -113.8125 C 80.988281 -111.75 84.3125 -108.988281 87.4375 -105.53125 Z M 85.25 -103.1875 "/></g></g></g><g fill="#000000" fill-opacity="1"><g transform="translate(185.645953, 243.012742)"><g><path d="M 54.9375 -118.921875 L 57.953125 -118.921875 L 109.71875 0 L 106.03125 0 L 87.4375 -42.546875 L 25.296875 -42.546875 L 6.703125 0 L 3.015625 0 Z M 85.921875 -45.890625 L 56.453125 -114.0625 L 26.625 -45.890625 Z M 85.921875 -45.890625 "/></g></g></g><g clip-path="url(#21d3a5da1d)"><path fill="#ffffff" d="M 37.828125 172.035156 L 337.507812 172.035156 L 337.507812 195.851562 L 37.828125 195.851562 Z M 37.828125 172.035156 " fill-opacity="1" fill-rule="nonzero"/></g><g clip-path="url(#992a5f733c)"><g clip-path="url(#caf18a5cfd)"><path fill="#ffffff" d="M 181.355469 127.609375 L 219.980469 127.609375 L 219.980469 179.207031 L 181.355469 179.207031 Z M 181.355469 127.609375 " fill-opacity="1" fill-rule="nonzero"/></g></g><g fill="#000000" fill-opacity="1"><g transform="translate(138.333556, 189.431925)"><g><path d="M 5.1875 0.09375 C 4.300781 0.09375 3.457031 -0.046875 2.65625 -0.328125 C 1.851562 -0.609375 1.234375 -0.976562 0.796875 -1.4375 L 1.28125 -2.390625 C 1.707031 -1.960938 2.273438 -1.617188 2.984375 -1.359375 C 3.691406 -1.097656 4.425781 -0.96875 5.1875 -0.96875 C 6.238281 -0.96875 7.03125 -1.160156 7.5625 -1.546875 C 8.09375 -1.929688 8.359375 -2.429688 8.359375 -3.046875 C 8.359375 -3.523438 8.210938 -3.90625 7.921875 -4.1875 C 7.640625 -4.46875 7.289062 -4.679688 6.875 -4.828125 C 6.457031 -4.984375 5.875 -5.148438 5.125 -5.328125 C 4.238281 -5.554688 3.53125 -5.773438 3 -5.984375 C 2.46875 -6.191406 2.015625 -6.507812 1.640625 -6.9375 C 1.265625 -7.363281 1.078125 -7.941406 1.078125 -8.671875 C 1.078125 -9.265625 1.234375 -9.804688 1.546875 -10.296875 C 1.867188 -10.785156 2.351562 -11.175781 3 -11.46875 C 3.65625 -11.757812 4.46875 -11.90625 5.4375 -11.90625 C 6.113281 -11.90625 6.773438 -11.8125 7.421875 -11.625 C 8.066406 -11.445312 8.625 -11.195312 9.09375 -10.875 L 8.671875 -9.875 C 8.179688 -10.195312 7.65625 -10.4375 7.09375 -10.59375 C 6.53125 -10.757812 5.976562 -10.84375 5.4375 -10.84375 C 4.394531 -10.84375 3.613281 -10.644531 3.09375 -10.25 C 2.570312 -9.851562 2.3125 -9.335938 2.3125 -8.703125 C 2.3125 -8.234375 2.453125 -7.851562 2.734375 -7.5625 C 3.023438 -7.28125 3.382812 -7.0625 3.8125 -6.90625 C 4.25 -6.757812 4.832031 -6.59375 5.5625 -6.40625 C 6.4375 -6.195312 7.140625 -5.988281 7.671875 -5.78125 C 8.203125 -5.570312 8.648438 -5.253906 9.015625 -4.828125 C 9.390625 -4.410156 9.578125 -3.84375 9.578125 -3.125 C 9.578125 -2.53125 9.414062 -1.988281 9.09375 -1.5 C 8.78125 -1.007812 8.289062 -0.617188 7.625 -0.328125 C 6.957031 -0.046875 6.144531 0.09375 5.1875 0.09375 Z M 5.1875 0.09375 "/></g></g></g><g fill="#000000" fill-opacity="1"><g transform="translate(154.095396, 189.431925)"><g><path d="M 9.328125 -3.15625 L 2.75 -3.15625 L 1.328125 0 L 0.03125 0 L 5.4375 -11.8125 L 6.671875 -11.8125 L 12.0625 0 L 10.75 0 Z M 8.875 -4.171875 L 6.046875 -10.515625 L 3.203125 -4.171875 Z M 8.875 -4.171875 "/></g></g></g><g fill="#000000" fill-opacity="1"><g transform="translate(171.578485, 189.431925)"><g><path d="M 10.25 -5.90625 L 11.4375 -5.90625 L 11.4375 -1.40625 C 10.882812 -0.914062 10.234375 -0.539062 9.484375 -0.28125 C 8.734375 -0.03125 7.941406 0.09375 7.109375 0.09375 C 5.921875 0.09375 4.851562 -0.160156 3.90625 -0.671875 C 2.96875 -1.191406 2.226562 -1.910156 1.6875 -2.828125 C 1.144531 -3.742188 0.875 -4.769531 0.875 -5.90625 C 0.875 -7.039062 1.144531 -8.066406 1.6875 -8.984375 C 2.226562 -9.898438 2.96875 -10.613281 3.90625 -11.125 C 4.851562 -11.644531 5.925781 -11.90625 7.125 -11.90625 C 8.019531 -11.90625 8.84375 -11.757812 9.59375 -11.46875 C 10.351562 -11.1875 10.992188 -10.765625 11.515625 -10.203125 L 10.734375 -9.421875 C 9.796875 -10.335938 8.609375 -10.796875 7.171875 -10.796875 C 6.210938 -10.796875 5.347656 -10.582031 4.578125 -10.15625 C 3.804688 -9.738281 3.203125 -9.15625 2.765625 -8.40625 C 2.328125 -7.664062 2.109375 -6.832031 2.109375 -5.90625 C 2.109375 -4.976562 2.328125 -4.144531 2.765625 -3.40625 C 3.203125 -2.664062 3.800781 -2.082031 4.5625 -1.65625 C 5.332031 -1.226562 6.195312 -1.015625 7.15625 -1.015625 C 8.375 -1.015625 9.40625 -1.316406 10.25 -1.921875 Z M 10.25 -5.90625 "/></g></g></g><g fill="#000000" fill-opacity="1"><g transform="translate(190.006579, 189.431925)"><g><path d="M 9.328125 -3.15625 L 2.75 -3.15625 L 1.328125 0 L 0.03125 0 L 5.4375 -11.8125 L 6.671875 -11.8125 L 12.0625 0 L 10.75 0 Z M 8.875 -4.171875 L 6.046875 -10.515625 L 3.203125 -4.171875 Z M 8.875 -4.171875 "/></g></g></g><g fill="#000000" fill-opacity="1"><g transform="translate(207.489671, 189.431925)"><g><path d="M 5.1875 0.09375 C 4.300781 0.09375 3.457031 -0.046875 2.65625 -0.328125 C 1.851562 -0.609375 1.234375 -0.976562 0.796875 -1.4375 L 1.28125 -2.390625 C 1.707031 -1.960938 2.273438 -1.617188 2.984375 -1.359375 C 3.691406 -1.097656 4.425781 -0.96875 5.1875 -0.96875 C 6.238281 -0.96875 7.03125 -1.160156 7.5625 -1.546875 C 8.09375 -1.929688 8.359375 -2.429688 8.359375 -3.046875 C 8.359375 -3.523438 8.210938 -3.90625 7.921875 -4.1875 C 7.640625 -4.46875 7.289062 -4.679688 6.875 -4.828125 C 6.457031 -4.984375 5.875 -5.148438 5.125 -5.328125 C 4.238281 -5.554688 3.53125 -5.773438 3 -5.984375 C 2.46875 -6.191406 2.015625 -6.507812 1.640625 -6.9375 C 1.265625 -7.363281 1.078125 -7.941406 1.078125 -8.671875 C 1.078125 -9.265625 1.234375 -9.804688 1.546875 -10.296875 C 1.867188 -10.785156 2.351562 -11.175781 3 -11.46875 C 3.65625 -11.757812 4.46875 -11.90625 5.4375 -11.90625 C 6.113281 -11.90625 6.773438 -11.8125 7.421875 -11.625 C 8.066406 -11.445312 8.625 -11.195312 9.09375 -10.875 L 8.671875 -9.875 C 8.179688 -10.195312 7.65625 -10.4375 7.09375 -10.59375 C 6.53125 -10.757812 5.976562 -10.84375 5.4375 -10.84375 C 4.394531 -10.84375 3.613281 -10.644531 3.09375 -10.25 C 2.570312 -9.851562 2.3125 -9.335938 2.3125 -8.703125 C 2.3125 -8.234375 2.453125 -7.851562 2.734375 -7.5625 C 3.023438 -7.28125 3.382812 -7.0625 3.8125 -6.90625 C 4.25 -6.757812 4.832031 -6.59375 5.5625 -6.40625 C 6.4375 -6.195312 7.140625 -5.988281 7.671875 -5.78125 C 8.203125 -5.570312 8.648438 -5.253906 9.015625 -4.828125 C 9.390625 -4.410156 9.578125 -3.84375 9.578125 -3.125 C 9.578125 -2.53125 9.414062 -1.988281 9.09375 -1.5 C 8.78125 -1.007812 8.289062 -0.617188 7.625 -0.328125 C 6.957031 -0.046875 6.144531 0.09375 5.1875 0.09375 Z M 5.1875 0.09375 "/></g></g></g><g fill="#000000" fill-opacity="1"><g transform="translate(223.251515, 189.431925)"><g><path d="M 11.796875 -11.8125 L 11.796875 0 L 10.5625 0 L 10.5625 -5.453125 L 3.171875 -5.453125 L 3.171875 0 L 1.921875 0 L 1.921875 -11.8125 L 3.171875 -11.8125 L 3.171875 -6.546875 L 10.5625 -6.546875 L 10.5625 -11.8125 Z M 11.796875 -11.8125 "/></g></g></g></svg>